<svg width="512" height="512" viewBox="0 0 512 512" fill="none" xmlns="http://www.w3.org/2000/svg">
<g clip-path="url(#clip0_1_12)">
<path d="M208 308C208 349.974 161.438 384 104 384C46.5624 384 0 349.974 0 308C0 308 46.5624 308 104 308C161.438 308 208 308 208 308Z" fill="#959595"/>
<path d="M512 308C512 349.974 465.438 384 408 384C350.562 384 304 349.974 304 308C304 308 350.562 308 408 308C465.438 308 512 308 512 308Z" fill="#959595"/>
<path d="M113 512C113 476.654 141.654 448 177 448H335C370.346 448 399 476.654 399 512V512H113V512Z" fill="#959595"/>
<path d="M240 16C240 7.16344 247.163 0 256 0V0C264.837 0 272 7.16344 272 16V512H240V16Z" fill="#959595"/>
<rect x="71" y="88" width="24" height="369" rx="12" transform="rotate(-90 71 88)" fill="#959595"/>
<line x1="104.415" y1="75.9965" x2="200.415" y2="312.997" stroke="#959595" stroke-width="16"/>
<line x1="103.406" y1="76.0254" x2="7.40587" y2="311.025" stroke="#959595" stroke-width="16"/>
<line x1="408.415" y1="75.9965" x2="504.415" y2="312.997" stroke="#959595" stroke-width="16"/>
<line x1="407.406" y1="76.0254" x2="311.406" y2="311.025" stroke="#959595" stroke-width="16"/>
</g>
<defs>
<clipPath id="clip0_1_12">
<rect width="512" height="512" fill="white"/>
</clipPath>
</defs>
</svg>
