<svg width="512" height="512" viewBox="0 0 512 512" fill="none" xmlns="http://www.w3.org/2000/svg">
<g clip-path="url(#clip0_1_12)">
<path d="M193 308C193 352.183 149.795 388 96.5 388C43.2045 388 0 352.183 0 308C0 308 43.2045 308 96.5 308C149.795 308 193 308 193 308Z" fill="#959595"/>
<path d="M512 308C512 352.183 468.572 388 415 388C361.428 388 318 352.183 318 308C318 308 361.428 308 415 308C468.572 308 512 308 512 308Z" fill="#959595"/>
<path d="M137 512C137 494.327 151.327 480 169 480H343C360.673 480 375 494.327 375 512V512H137V512Z" fill="#959595"/>
<path d="M238 10C238 4.47716 242.477 0 248 0H261C266.523 0 271 4.47715 271 10V491H238V10Z" fill="#959595"/>
<rect x="71" y="100" width="23" height="369" rx="11.5" transform="rotate(-90 71 100)" fill="#959595"/>
<line x1="320.694" y1="309.035" x2="412.694" y2="89.0355" stroke="#959595" stroke-width="5"/>
<line x1="509.712" y1="309.009" x2="412.712" y2="89.0086" stroke="#959595" stroke-width="5"/>
<line x1="1.69355" y1="309.035" x2="93.6936" y2="89.0355" stroke="#959595" stroke-width="5"/>
<line x1="190.712" y1="309.009" x2="93.7125" y2="89.0086" stroke="#959595" stroke-width="5"/>
</g>
<defs>
<clipPath id="clip0_1_12">
<rect width="512" height="512" fill="white"/>
</clipPath>
</defs>
</svg>
